<svg width="1920" height="100" viewBox="0 0 1920 100" fill="none" xmlns="http://www.w3.org/2000/svg">
<path d="M990.264 55.07C989.573 55.07 988.939 54.93 988.36 54.65C987.791 54.3607 987.301 53.9827 986.89 53.516C986.479 53.04 986.162 52.4987 985.938 51.892C985.714 51.2853 985.602 50.6647 985.602 50.03C985.602 49.3673 985.719 48.7327 985.952 48.126C986.195 47.5193 986.526 46.9827 986.946 46.516C987.366 46.0493 987.861 45.6807 988.43 45.41C988.999 45.13 989.615 44.99 990.278 44.99C990.969 44.99 991.599 45.1393 992.168 45.438C992.747 45.7273 993.237 46.11 993.638 46.586C994.049 47.062 994.366 47.6033 994.59 48.21C994.814 48.8073 994.926 49.4187 994.926 50.044C994.926 50.7067 994.805 51.3413 994.562 51.948C994.329 52.5547 994.002 53.0913 993.582 53.558C993.171 54.0153 992.681 54.384 992.112 54.664C991.543 54.9347 990.927 55.07 990.264 55.07ZM986.582 50.03C986.582 50.5713 986.671 51.094 986.848 51.598C987.025 52.0927 987.277 52.536 987.604 52.928C987.931 53.3107 988.318 53.6187 988.766 53.852C989.214 54.076 989.713 54.188 990.264 54.188C990.824 54.188 991.333 54.0667 991.79 53.824C992.247 53.5813 992.635 53.264 992.952 52.872C993.269 52.48 993.512 52.0367 993.68 51.542C993.857 51.0473 993.946 50.5433 993.946 50.03C993.946 49.4887 993.853 48.9707 993.666 48.476C993.489 47.972 993.237 47.5287 992.91 47.146C992.583 46.7633 992.196 46.46 991.748 46.236C991.3 46.0027 990.805 45.886 990.264 45.886C989.704 45.886 989.195 46.0073 988.738 46.25C988.281 46.4833 987.893 46.796 987.576 47.188C987.259 47.58 987.011 48.0233 986.834 48.518C986.666 49.0127 986.582 49.5167 986.582 50.03ZM1005.86 47.706H1006.92L1004.16 51.234L1007.16 55H1006.1L1003.52 51.668H1002.48V55H1001.55V47.706H1002.48V50.926H1003.44L1005.86 47.706ZM1011.85 55.14C1011.32 55.14 1010.83 55.042 1010.39 54.846C1009.95 54.6407 1009.57 54.3653 1009.24 54.02C1008.93 53.6747 1008.68 53.2733 1008.5 52.816C1008.32 52.3587 1008.24 51.878 1008.24 51.374C1008.24 50.8607 1008.32 50.3753 1008.5 49.918C1008.69 49.4607 1008.94 49.0593 1009.26 48.714C1009.58 48.3687 1009.97 48.0933 1010.41 47.888C1010.84 47.6827 1011.33 47.58 1011.85 47.58C1012.37 47.58 1012.85 47.6827 1013.29 47.888C1013.74 48.0933 1014.12 48.3687 1014.44 48.714C1014.76 49.0593 1015.02 49.4607 1015.19 49.918C1015.38 50.3753 1015.47 50.8607 1015.47 51.374C1015.47 51.878 1015.39 52.3587 1015.21 52.816C1015.03 53.2733 1014.78 53.6747 1014.45 54.02C1014.13 54.3653 1013.75 54.6407 1013.3 54.846C1012.87 55.042 1012.38 55.14 1011.85 55.14ZM1009.2 51.388C1009.2 51.7987 1009.27 52.1813 1009.41 52.536C1009.55 52.8813 1009.74 53.1893 1009.97 53.46C1010.21 53.7213 1010.49 53.9267 1010.81 54.076C1011.14 54.2253 1011.48 54.3 1011.85 54.3C1012.21 54.3 1012.55 54.2253 1012.87 54.076C1013.2 53.9173 1013.48 53.7073 1013.72 53.446C1013.97 53.1753 1014.16 52.8627 1014.3 52.508C1014.44 52.1533 1014.51 51.7707 1014.51 51.36C1014.51 50.9587 1014.44 50.5807 1014.3 50.226C1014.16 49.862 1013.97 49.5493 1013.72 49.288C1013.48 49.0173 1013.2 48.8073 1012.87 48.658C1012.55 48.4993 1012.21 48.42 1011.85 48.42C1011.48 48.42 1011.14 48.4993 1010.83 48.658C1010.51 48.8073 1010.23 49.0173 1009.99 49.288C1009.74 49.5587 1009.55 49.876 1009.41 50.24C1009.27 50.5947 1009.2 50.9773 1009.2 51.388ZM1021.46 52.62L1024.19 47.706H1025.12V55H1024.19V49.4L1021.74 53.782H1021.18L1018.72 49.4V55H1017.78V47.706H1018.73L1021.46 52.62ZM1033.68 55H1032.76V48.532H1028.88V55H1027.94V47.706H1033.68V55ZM1035.55 54.202C1035.81 54.1833 1036.04 54.1133 1036.24 53.992C1036.43 53.8613 1036.6 53.6327 1036.74 53.306C1036.89 52.97 1037.01 52.5127 1037.12 51.934C1037.23 51.3553 1037.34 50.604 1037.44 49.68L1037.65 47.706H1041.93V55H1041V48.462H1038.53L1038.34 50.086C1038.21 51.0567 1038.08 51.8593 1037.93 52.494C1037.78 53.1193 1037.6 53.6233 1037.4 54.006C1037.2 54.3793 1036.96 54.6453 1036.68 54.804C1036.4 54.9533 1036.08 55.0373 1035.7 55.056L1035.55 54.202ZM1047.9 55.14C1047.37 55.14 1046.88 55.042 1046.43 54.846C1045.99 54.6407 1045.61 54.3653 1045.28 54.02C1044.95 53.6653 1044.7 53.2593 1044.51 52.802C1044.33 52.3447 1044.24 51.8547 1044.24 51.332C1044.24 50.8187 1044.33 50.338 1044.51 49.89C1044.7 49.4327 1044.95 49.036 1045.27 48.7C1045.59 48.3547 1045.98 48.084 1046.43 47.888C1046.88 47.6827 1047.36 47.58 1047.88 47.58C1048.42 47.58 1048.9 47.6827 1049.34 47.888C1049.79 48.084 1050.17 48.3547 1050.49 48.7C1050.81 49.0453 1051.05 49.442 1051.23 49.89C1051.41 50.338 1051.5 50.814 1051.5 51.318C1051.5 51.3927 1051.5 51.4673 1051.5 51.542C1051.5 51.6167 1051.49 51.668 1051.48 51.696H1045.24C1045.27 52.088 1045.36 52.452 1045.5 52.788C1045.66 53.1147 1045.86 53.3993 1046.11 53.642C1046.35 53.8847 1046.62 54.076 1046.93 54.216C1047.25 54.3467 1047.59 54.412 1047.94 54.412C1048.17 54.412 1048.41 54.3793 1048.64 54.314C1048.87 54.2487 1049.09 54.16 1049.28 54.048C1049.48 53.936 1049.66 53.8007 1049.82 53.642C1049.98 53.474 1050.1 53.292 1050.18 53.096L1051.01 53.32C1050.89 53.5907 1050.74 53.838 1050.53 54.062C1050.33 54.2767 1050.09 54.468 1049.82 54.636C1049.55 54.7947 1049.25 54.916 1048.92 55C1048.59 55.0933 1048.25 55.14 1047.9 55.14ZM1050.59 50.968C1050.56 50.576 1050.47 50.2213 1050.31 49.904C1050.16 49.5773 1049.96 49.2973 1049.72 49.064C1049.49 48.8307 1049.21 48.6487 1048.89 48.518C1048.58 48.3873 1048.25 48.322 1047.9 48.322C1047.54 48.322 1047.21 48.3873 1046.89 48.518C1046.57 48.6487 1046.29 48.8307 1046.05 49.064C1045.82 49.2973 1045.63 49.5773 1045.48 49.904C1045.34 50.2307 1045.25 50.5853 1045.22 50.968H1050.59ZM1057.99 47.706H1059.06L1056.3 51.234L1059.29 55H1058.23L1055.65 51.668H1054.62V55H1053.68V47.706H1054.62V50.926H1055.57L1057.99 47.706ZM1060.37 51.332C1060.37 50.8187 1060.46 50.3333 1060.64 49.876C1060.81 49.4187 1061.06 49.022 1061.38 48.686C1061.7 48.3407 1062.09 48.07 1062.54 47.874C1062.99 47.678 1063.48 47.58 1064.02 47.58C1064.71 47.58 1065.32 47.7387 1065.83 48.056C1066.34 48.364 1066.73 48.784 1066.99 49.316L1066.07 49.61C1065.86 49.2367 1065.57 48.9473 1065.2 48.742C1064.84 48.5273 1064.43 48.42 1063.98 48.42C1063.61 48.42 1063.26 48.4947 1062.93 48.644C1062.61 48.7933 1062.33 48.9987 1062.09 49.26C1061.86 49.512 1061.67 49.8153 1061.53 50.17C1061.4 50.5247 1061.34 50.912 1061.34 51.332C1061.34 51.7427 1061.41 52.13 1061.55 52.494C1061.69 52.858 1061.88 53.1753 1062.12 53.446C1062.36 53.7073 1062.64 53.9173 1062.96 54.076C1063.29 54.2253 1063.63 54.3 1064 54.3C1064.23 54.3 1064.46 54.2673 1064.68 54.202C1064.91 54.1367 1065.13 54.048 1065.33 53.936C1065.52 53.8147 1065.69 53.6793 1065.83 53.53C1065.97 53.3807 1066.07 53.222 1066.12 53.054L1067.06 53.334C1066.96 53.5953 1066.81 53.838 1066.61 54.062C1066.42 54.2767 1066.18 54.468 1065.91 54.636C1065.65 54.7947 1065.36 54.916 1065.03 55C1064.71 55.0933 1064.38 55.14 1064.04 55.14C1063.51 55.14 1063.02 55.042 1062.57 54.846C1062.12 54.6407 1061.73 54.3653 1061.41 54.02C1061.08 53.6653 1060.82 53.2593 1060.64 52.802C1060.46 52.3447 1060.37 51.8547 1060.37 51.332ZM1072.33 55.14C1071.79 55.14 1071.3 55.042 1070.86 54.846C1070.42 54.6407 1070.03 54.3653 1069.71 54.02C1069.38 53.6653 1069.12 53.2593 1068.94 52.802C1068.76 52.3447 1068.67 51.8547 1068.67 51.332C1068.67 50.8187 1068.76 50.338 1068.94 49.89C1069.12 49.4327 1069.38 49.036 1069.69 48.7C1070.02 48.3547 1070.41 48.084 1070.86 47.888C1071.3 47.6827 1071.79 47.58 1072.31 47.58C1072.84 47.58 1073.33 47.6827 1073.77 47.888C1074.22 48.084 1074.6 48.3547 1074.92 48.7C1075.23 49.0453 1075.48 49.442 1075.66 49.89C1075.83 50.338 1075.92 50.814 1075.92 51.318C1075.92 51.3927 1075.92 51.4673 1075.92 51.542C1075.92 51.6167 1075.92 51.668 1075.91 51.696H1069.67C1069.69 52.088 1069.78 52.452 1069.93 52.788C1070.09 53.1147 1070.29 53.3993 1070.53 53.642C1070.78 53.8847 1071.05 54.076 1071.36 54.216C1071.68 54.3467 1072.01 54.412 1072.37 54.412C1072.6 54.412 1072.83 54.3793 1073.07 54.314C1073.3 54.2487 1073.52 54.16 1073.71 54.048C1073.91 53.936 1074.08 53.8007 1074.24 53.642C1074.4 53.474 1074.52 53.292 1074.61 53.096L1075.43 53.32C1075.32 53.5907 1075.16 53.838 1074.96 54.062C1074.75 54.2767 1074.51 54.468 1074.24 54.636C1073.97 54.7947 1073.67 54.916 1073.35 55C1073.02 55.0933 1072.68 55.14 1072.33 55.14ZM1075.01 50.968C1074.99 50.576 1074.89 50.2213 1074.73 49.904C1074.58 49.5773 1074.39 49.2973 1074.15 49.064C1073.91 48.8307 1073.64 48.6487 1073.32 48.518C1073.01 48.3873 1072.68 48.322 1072.33 48.322C1071.97 48.322 1071.63 48.3873 1071.32 48.518C1071 48.6487 1070.72 48.8307 1070.48 49.064C1070.24 49.2973 1070.05 49.5773 1069.9 49.904C1069.76 50.2307 1069.68 50.5853 1069.65 50.968H1075.01Z" fill="white"/>
<path d="M1118.26 55V45.06H1122.38C1122.81 45.06 1123.2 45.1533 1123.55 45.34C1123.92 45.5173 1124.23 45.7553 1124.49 46.054C1124.75 46.3433 1124.96 46.6747 1125.11 47.048C1125.26 47.4213 1125.33 47.7993 1125.33 48.182C1125.33 48.5927 1125.26 48.9893 1125.12 49.372C1124.98 49.7453 1124.78 50.0767 1124.53 50.366C1124.28 50.6553 1123.98 50.8887 1123.62 51.066C1123.28 51.2433 1122.89 51.332 1122.46 51.332H1119.24V55H1118.26ZM1119.24 50.464H1122.42C1122.71 50.464 1122.97 50.4033 1123.2 50.282C1123.44 50.1513 1123.65 49.9833 1123.82 49.778C1123.99 49.5633 1124.12 49.3207 1124.21 49.05C1124.3 48.77 1124.35 48.4807 1124.35 48.182C1124.35 47.874 1124.29 47.5847 1124.18 47.314C1124.08 47.034 1123.93 46.7913 1123.75 46.586C1123.57 46.3807 1123.36 46.222 1123.1 46.11C1122.86 45.9887 1122.6 45.928 1122.33 45.928H1119.24V50.464ZM1129.24 55.14C1128.89 55.14 1128.57 55.084 1128.27 54.972C1127.98 54.8507 1127.73 54.6873 1127.5 54.482C1127.29 54.2767 1127.12 54.0387 1127 53.768C1126.88 53.488 1126.82 53.1893 1126.82 52.872C1126.82 52.5547 1126.89 52.2607 1127.04 51.99C1127.19 51.7193 1127.4 51.486 1127.67 51.29C1127.94 51.094 1128.26 50.9447 1128.64 50.842C1129.01 50.73 1129.42 50.674 1129.87 50.674C1130.24 50.674 1130.62 50.7067 1131 50.772C1131.38 50.8373 1131.73 50.9307 1132.02 51.052V50.394C1132.02 49.75 1131.84 49.2413 1131.48 48.868C1131.11 48.4853 1130.61 48.294 1129.97 48.294C1129.59 48.294 1129.21 48.3687 1128.82 48.518C1128.43 48.6673 1128.03 48.882 1127.63 49.162L1127.29 48.532C1128.23 47.8973 1129.15 47.58 1130.04 47.58C1130.95 47.58 1131.67 47.8367 1132.19 48.35C1132.71 48.8633 1132.98 49.5727 1132.98 50.478V53.768C1132.98 54.0293 1133.09 54.16 1133.33 54.16V55C1133.17 55.028 1133.05 55.042 1132.96 55.042C1132.72 55.042 1132.53 54.9813 1132.39 54.86C1132.26 54.7387 1132.19 54.5707 1132.18 54.356L1132.15 53.782C1131.81 54.2207 1131.39 54.5567 1130.88 54.79C1130.37 55.0233 1129.83 55.14 1129.24 55.14ZM1129.46 54.412C1129.96 54.412 1130.41 54.3187 1130.82 54.132C1131.24 53.9453 1131.56 53.698 1131.77 53.39C1131.86 53.306 1131.92 53.2173 1131.95 53.124C1132 53.0213 1132.02 52.928 1132.02 52.844V51.654C1131.71 51.5327 1131.38 51.4393 1131.03 51.374C1130.69 51.3087 1130.35 51.276 1129.99 51.276C1129.32 51.276 1128.78 51.416 1128.36 51.696C1127.94 51.976 1127.73 52.3447 1127.73 52.802C1127.73 53.026 1127.77 53.236 1127.85 53.432C1127.95 53.628 1128.07 53.8007 1128.22 53.95C1128.37 54.09 1128.56 54.202 1128.78 54.286C1128.99 54.37 1129.22 54.412 1129.46 54.412ZM1140.84 44.976C1140.82 45.4147 1140.64 45.7507 1140.3 45.984C1139.96 46.208 1139.49 46.32 1138.9 46.32C1138.29 46.32 1137.82 46.208 1137.48 45.984C1137.15 45.7507 1136.96 45.4147 1136.94 44.976H1137.54C1137.56 45.2933 1137.68 45.5173 1137.9 45.648C1138.13 45.7693 1138.46 45.83 1138.9 45.83C1139.34 45.83 1139.66 45.7693 1139.88 45.648C1140.1 45.5267 1140.23 45.3027 1140.25 44.976H1140.84ZM1136.7 53.656L1141.05 47.706H1141.82V55H1140.88V49.162L1136.61 55H1135.76V47.706H1136.7V53.656ZM1147.74 55.14C1147.21 55.14 1146.73 55.042 1146.29 54.846C1145.85 54.6407 1145.47 54.3653 1145.14 54.02C1144.82 53.6747 1144.58 53.2733 1144.4 52.816C1144.22 52.3587 1144.13 51.878 1144.13 51.374C1144.13 50.8607 1144.22 50.3753 1144.4 49.918C1144.58 49.4607 1144.84 49.0593 1145.15 48.714C1145.48 48.3687 1145.86 48.0933 1146.3 47.888C1146.74 47.6827 1147.22 47.58 1147.74 47.58C1148.27 47.58 1148.75 47.6827 1149.19 47.888C1149.63 48.0933 1150.02 48.3687 1150.33 48.714C1150.66 49.0593 1150.91 49.4607 1151.09 49.918C1151.28 50.3753 1151.37 50.8607 1151.37 51.374C1151.37 51.878 1151.28 52.3587 1151.1 52.816C1150.93 53.2733 1150.67 53.6747 1150.35 54.02C1150.03 54.3653 1149.65 54.6407 1149.2 54.846C1148.76 55.042 1148.28 55.14 1147.74 55.14ZM1145.1 51.388C1145.1 51.7987 1145.17 52.1813 1145.31 52.536C1145.45 52.8813 1145.63 53.1893 1145.87 53.46C1146.11 53.7213 1146.39 53.9267 1146.71 54.076C1147.03 54.2253 1147.38 54.3 1147.74 54.3C1148.11 54.3 1148.45 54.2253 1148.77 54.076C1149.09 53.9173 1149.38 53.7073 1149.62 53.446C1149.86 53.1753 1150.05 52.8627 1150.19 52.508C1150.33 52.1533 1150.4 51.7707 1150.4 51.36C1150.4 50.9587 1150.33 50.5807 1150.19 50.226C1150.05 49.862 1149.86 49.5493 1149.62 49.288C1149.38 49.0173 1149.09 48.8073 1148.77 48.658C1148.45 48.4993 1148.11 48.42 1147.74 48.42C1147.38 48.42 1147.04 48.4993 1146.72 48.658C1146.4 48.8073 1146.12 49.0173 1145.88 49.288C1145.64 49.5587 1145.45 49.876 1145.31 50.24C1145.17 50.5947 1145.1 50.9773 1145.1 51.388ZM1154.61 50.856H1158.7V47.706H1159.64V55H1158.7V51.654H1154.61V55H1153.68V47.706H1154.61V50.856Z" fill="white"/>
<path d="M1203.24 49.47H1204.75L1208 45.06H1209.12L1205.63 49.848L1209.48 55H1208.36L1204.84 50.338H1203.24V55H1202.27V45.06H1203.24V49.47ZM1213.03 55.14C1212.69 55.14 1212.37 55.084 1212.07 54.972C1211.78 54.8507 1211.52 54.6873 1211.3 54.482C1211.08 54.2767 1210.91 54.0387 1210.79 53.768C1210.67 53.488 1210.61 53.1893 1210.61 52.872C1210.61 52.5547 1210.69 52.2607 1210.84 51.99C1210.98 51.7193 1211.19 51.486 1211.47 51.29C1211.74 51.094 1212.06 50.9447 1212.43 50.842C1212.8 50.73 1213.22 50.674 1213.66 50.674C1214.04 50.674 1214.41 50.7067 1214.8 50.772C1215.18 50.8373 1215.52 50.9307 1215.82 51.052V50.394C1215.82 49.75 1215.64 49.2413 1215.27 48.868C1214.91 48.4853 1214.41 48.294 1213.76 48.294C1213.39 48.294 1213.01 48.3687 1212.61 48.518C1212.22 48.6673 1211.82 48.882 1211.42 49.162L1211.09 48.532C1212.03 47.8973 1212.94 47.58 1213.83 47.58C1214.75 47.58 1215.46 47.8367 1215.99 48.35C1216.51 48.8633 1216.77 49.5727 1216.77 50.478V53.768C1216.77 54.0293 1216.89 54.16 1217.12 54.16V55C1216.96 55.028 1216.84 55.042 1216.76 55.042C1216.51 55.042 1216.32 54.9813 1216.18 54.86C1216.05 54.7387 1215.98 54.5707 1215.97 54.356L1215.95 53.782C1215.61 54.2207 1215.18 54.5567 1214.67 54.79C1214.17 55.0233 1213.62 55.14 1213.03 55.14ZM1213.26 54.412C1213.75 54.412 1214.2 54.3187 1214.62 54.132C1215.04 53.9453 1215.35 53.698 1215.57 53.39C1215.65 53.306 1215.71 53.2173 1215.75 53.124C1215.8 53.0213 1215.82 52.928 1215.82 52.844V51.654C1215.5 51.5327 1215.17 51.4393 1214.83 51.374C1214.49 51.3087 1214.14 51.276 1213.79 51.276C1213.12 51.276 1212.57 51.416 1212.15 51.696C1211.73 51.976 1211.52 52.3447 1211.52 52.802C1211.52 53.026 1211.56 53.236 1211.65 53.432C1211.74 53.628 1211.86 53.8007 1212.01 53.95C1212.17 54.09 1212.36 54.202 1212.57 54.286C1212.79 54.37 1213.01 54.412 1213.26 54.412ZM1222.07 55H1221.14V48.532H1218.58V47.706H1224.63V48.532H1222.07V55ZM1228.36 55.14C1228.02 55.14 1227.7 55.084 1227.4 54.972C1227.11 54.8507 1226.85 54.6873 1226.63 54.482C1226.41 54.2767 1226.25 54.0387 1226.12 53.768C1226 53.488 1225.94 53.1893 1225.94 52.872C1225.94 52.5547 1226.02 52.2607 1226.17 51.99C1226.32 51.7193 1226.53 51.486 1226.8 51.29C1227.07 51.094 1227.39 50.9447 1227.76 50.842C1228.14 50.73 1228.55 50.674 1228.99 50.674C1229.37 50.674 1229.75 50.7067 1230.13 50.772C1230.51 50.8373 1230.85 50.9307 1231.15 51.052V50.394C1231.15 49.75 1230.97 49.2413 1230.6 48.868C1230.24 48.4853 1229.74 48.294 1229.09 48.294C1228.72 48.294 1228.34 48.3687 1227.94 48.518C1227.55 48.6673 1227.16 48.882 1226.75 49.162L1226.42 48.532C1227.36 47.8973 1228.28 47.58 1229.16 47.58C1230.08 47.58 1230.8 47.8367 1231.32 48.35C1231.84 48.8633 1232.1 49.5727 1232.1 50.478V53.768C1232.1 54.0293 1232.22 54.16 1232.45 54.16V55C1232.29 55.028 1232.17 55.042 1232.09 55.042C1231.85 55.042 1231.65 54.9813 1231.51 54.86C1231.38 54.7387 1231.31 54.5707 1231.3 54.356L1231.28 53.782C1230.94 54.2207 1230.52 54.5567 1230 54.79C1229.5 55.0233 1228.95 55.14 1228.36 55.14ZM1228.59 54.412C1229.08 54.412 1229.54 54.3187 1229.95 54.132C1230.37 53.9453 1230.68 53.698 1230.9 53.39C1230.98 53.306 1231.04 53.2173 1231.08 53.124C1231.13 53.0213 1231.15 52.928 1231.15 52.844V51.654C1230.83 51.5327 1230.5 51.4393 1230.16 51.374C1229.82 51.3087 1229.48 51.276 1229.12 51.276C1228.45 51.276 1227.9 51.416 1227.48 51.696C1227.06 51.976 1226.85 52.3447 1226.85 52.802C1226.85 53.026 1226.89 53.236 1226.98 53.432C1227.07 53.628 1227.19 53.8007 1227.34 53.95C1227.5 54.09 1227.69 54.202 1227.9 54.286C1228.12 54.37 1228.35 54.412 1228.59 54.412ZM1233.91 54.202C1234.17 54.1833 1234.4 54.1133 1234.59 53.992C1234.79 53.8613 1234.96 53.6327 1235.1 53.306C1235.25 52.97 1235.37 52.5127 1235.48 51.934C1235.59 51.3553 1235.69 50.604 1235.8 49.68L1236.01 47.706H1240.29V55H1239.35V48.462H1236.89L1236.69 50.086C1236.57 51.0567 1236.44 51.8593 1236.29 52.494C1236.14 53.1193 1235.96 53.6233 1235.76 54.006C1235.56 54.3793 1235.32 54.6453 1235.04 54.804C1234.76 54.9533 1234.43 55.0373 1234.06 55.056L1233.91 54.202ZM1246.21 55.14C1245.68 55.14 1245.2 55.042 1244.76 54.846C1244.32 54.6407 1243.94 54.3653 1243.61 54.02C1243.29 53.6747 1243.05 53.2733 1242.87 52.816C1242.69 52.3587 1242.6 51.878 1242.6 51.374C1242.6 50.8607 1242.69 50.3753 1242.87 49.918C1243.06 49.4607 1243.31 49.0593 1243.62 48.714C1243.95 48.3687 1244.33 48.0933 1244.77 47.888C1245.21 47.6827 1245.69 47.58 1246.21 47.58C1246.74 47.58 1247.22 47.6827 1247.66 47.888C1248.1 48.0933 1248.49 48.3687 1248.8 48.714C1249.13 49.0593 1249.38 49.4607 1249.56 49.918C1249.75 50.3753 1249.84 50.8607 1249.84 51.374C1249.84 51.878 1249.75 52.3587 1249.57 52.816C1249.4 53.2733 1249.15 53.6747 1248.82 54.02C1248.5 54.3653 1248.12 54.6407 1247.67 54.846C1247.23 55.042 1246.75 55.14 1246.21 55.14ZM1243.57 51.388C1243.57 51.7987 1243.64 52.1813 1243.78 52.536C1243.92 52.8813 1244.11 53.1893 1244.34 53.46C1244.58 53.7213 1244.86 53.9267 1245.18 54.076C1245.51 54.2253 1245.85 54.3 1246.21 54.3C1246.58 54.3 1246.92 54.2253 1247.24 54.076C1247.56 53.9173 1247.85 53.7073 1248.09 53.446C1248.33 53.1753 1248.52 52.8627 1248.66 52.508C1248.8 52.1533 1248.87 51.7707 1248.87 51.36C1248.87 50.9587 1248.8 50.5807 1248.66 50.226C1248.52 49.862 1248.33 49.5493 1248.09 49.288C1247.85 49.0173 1247.56 48.8073 1247.24 48.658C1246.92 48.4993 1246.58 48.42 1246.21 48.42C1245.85 48.42 1245.51 48.4993 1245.19 48.658C1244.88 48.8073 1244.6 49.0173 1244.35 49.288C1244.11 49.5587 1243.92 49.876 1243.78 50.24C1243.64 50.5947 1243.57 50.9773 1243.57 51.388ZM1256.6 48.434H1253.08V55H1252.15V47.706H1256.6V48.434ZM1267.24 47.706H1268.3L1265.54 51.234L1268.54 55H1267.48L1264.9 51.668H1263.86V55H1262.93V47.706H1263.86V50.926H1264.82L1267.24 47.706ZM1274 47.706C1274.27 47.706 1274.5 47.7527 1274.72 47.846C1274.94 47.9393 1275.13 48.07 1275.29 48.238C1275.46 48.3967 1275.59 48.5833 1275.67 48.798C1275.76 49.0127 1275.81 49.246 1275.81 49.498C1275.81 49.666 1275.79 49.834 1275.74 50.002C1275.7 50.17 1275.64 50.3333 1275.56 50.492C1275.47 50.6413 1275.37 50.7813 1275.24 50.912C1275.11 51.0333 1274.95 51.1313 1274.77 51.206C1275.19 51.318 1275.51 51.5327 1275.74 51.85C1275.97 52.1673 1276.09 52.55 1276.09 52.998C1276.09 53.2967 1276.03 53.5673 1275.92 53.81C1275.82 54.0527 1275.67 54.2627 1275.47 54.44C1275.29 54.6173 1275.06 54.7573 1274.8 54.86C1274.54 54.9533 1274.26 55 1273.95 55H1270.43V47.706H1274ZM1273.63 50.926C1274.01 50.926 1274.31 50.8047 1274.54 50.562C1274.76 50.3193 1274.87 50.0113 1274.87 49.638C1274.87 49.3113 1274.78 49.0267 1274.59 48.784C1274.41 48.5413 1274.12 48.42 1273.72 48.42H1271.36V50.926H1273.63ZM1273.85 54.286C1274.05 54.286 1274.22 54.2487 1274.38 54.174C1274.55 54.0993 1274.69 54.0013 1274.8 53.88C1274.91 53.7493 1275 53.6047 1275.07 53.446C1275.13 53.2873 1275.17 53.1193 1275.17 52.942C1275.17 52.606 1275.05 52.3073 1274.82 52.046C1274.59 51.7847 1274.28 51.654 1273.88 51.654H1271.36V54.286H1273.85ZM1280.26 55.14C1279.91 55.14 1279.59 55.084 1279.29 54.972C1279 54.8507 1278.74 54.6873 1278.52 54.482C1278.3 54.2767 1278.14 54.0387 1278.02 53.768C1277.89 53.488 1277.83 53.1893 1277.83 52.872C1277.83 52.5547 1277.91 52.2607 1278.06 51.99C1278.21 51.7193 1278.42 51.486 1278.69 51.29C1278.96 51.094 1279.28 50.9447 1279.65 50.842C1280.03 50.73 1280.44 50.674 1280.89 50.674C1281.26 50.674 1281.64 50.7067 1282.02 50.772C1282.4 50.8373 1282.74 50.9307 1283.04 51.052V50.394C1283.04 49.75 1282.86 49.2413 1282.5 48.868C1282.13 48.4853 1281.63 48.294 1280.98 48.294C1280.61 48.294 1280.23 48.3687 1279.84 48.518C1279.44 48.6673 1279.05 48.882 1278.65 49.162L1278.31 48.532C1279.25 47.8973 1280.17 47.58 1281.05 47.58C1281.97 47.58 1282.69 47.8367 1283.21 48.35C1283.73 48.8633 1283.99 49.5727 1283.99 50.478V53.768C1283.99 54.0293 1284.11 54.16 1284.34 54.16V55C1284.18 55.028 1284.06 55.042 1283.98 55.042C1283.74 55.042 1283.55 54.9813 1283.41 54.86C1283.27 54.7387 1283.2 54.5707 1283.2 54.356L1283.17 53.782C1282.83 54.2207 1282.41 54.5567 1281.89 54.79C1281.39 55.0233 1280.84 55.14 1280.26 55.14ZM1280.48 54.412C1280.97 54.412 1281.43 54.3187 1281.84 54.132C1282.26 53.9453 1282.57 53.698 1282.79 53.39C1282.87 53.306 1282.93 53.2173 1282.97 53.124C1283.02 53.0213 1283.04 52.928 1283.04 52.844V51.654C1282.72 51.5327 1282.39 51.4393 1282.05 51.374C1281.71 51.3087 1281.37 51.276 1281.01 51.276C1280.34 51.276 1279.79 51.416 1279.37 51.696C1278.95 51.976 1278.74 52.3447 1278.74 52.802C1278.74 53.026 1278.79 53.236 1278.87 53.432C1278.96 53.628 1279.08 53.8007 1279.23 53.95C1279.39 54.09 1279.58 54.202 1279.79 54.286C1280.01 54.37 1280.24 54.412 1280.48 54.412ZM1290.5 55.14C1289.89 55.14 1289.34 54.986 1288.86 54.678C1288.4 54.3607 1288.02 53.964 1287.73 53.488V57.982H1286.78V47.706H1287.63V49.12C1287.93 48.6627 1288.32 48.294 1288.79 48.014C1289.27 47.7247 1289.79 47.58 1290.35 47.58C1290.85 47.58 1291.31 47.6873 1291.73 47.902C1292.15 48.1073 1292.52 48.3873 1292.83 48.742C1293.13 49.0873 1293.37 49.4887 1293.54 49.946C1293.72 50.4033 1293.81 50.8747 1293.81 51.36C1293.81 51.8733 1293.73 52.3587 1293.57 52.816C1293.41 53.2733 1293.18 53.6747 1292.88 54.02C1292.59 54.3653 1292.24 54.6407 1291.83 54.846C1291.43 55.042 1290.99 55.14 1290.5 55.14ZM1290.24 54.3C1290.63 54.3 1290.98 54.216 1291.3 54.048C1291.63 53.88 1291.9 53.6607 1292.13 53.39C1292.36 53.11 1292.54 52.7973 1292.66 52.452C1292.78 52.0973 1292.84 51.7333 1292.84 51.36C1292.84 50.968 1292.77 50.5947 1292.63 50.24C1292.49 49.8853 1292.3 49.5727 1292.06 49.302C1291.81 49.0313 1291.52 48.8167 1291.19 48.658C1290.86 48.4993 1290.51 48.42 1290.12 48.42C1289.88 48.42 1289.62 48.4713 1289.35 48.574C1289.09 48.6673 1288.85 48.798 1288.61 48.966C1288.39 49.1247 1288.19 49.316 1288.02 49.54C1287.87 49.7547 1287.77 49.9833 1287.73 50.226V52.466C1287.84 52.7273 1287.98 52.97 1288.15 53.194C1288.33 53.418 1288.52 53.614 1288.74 53.782C1288.96 53.9407 1289.2 54.0667 1289.45 54.16C1289.7 54.2533 1289.97 54.3 1290.24 54.3ZM1298.51 55H1297.58V48.532H1295.02V47.706H1301.07V48.532H1298.51V55ZM1304.06 53.656L1308.41 47.706H1309.18V55H1308.25V49.162L1303.98 55H1303.12V47.706H1304.06V53.656ZM1315.75 55.14C1315.13 55.14 1314.59 54.986 1314.11 54.678C1313.64 54.3607 1313.27 53.964 1312.98 53.488V57.982H1312.02V47.706H1312.88V49.12C1313.18 48.6627 1313.56 48.294 1314.04 48.014C1314.52 47.7247 1315.03 47.58 1315.59 47.58C1316.1 47.58 1316.56 47.6873 1316.98 47.902C1317.4 48.1073 1317.76 48.3873 1318.07 48.742C1318.38 49.0873 1318.62 49.4887 1318.79 49.946C1318.96 50.4033 1319.05 50.8747 1319.05 51.36C1319.05 51.8733 1318.97 52.3587 1318.81 52.816C1318.66 53.2733 1318.43 53.6747 1318.13 54.02C1317.84 54.3653 1317.49 54.6407 1317.08 54.846C1316.68 55.042 1316.23 55.14 1315.75 55.14ZM1315.48 54.3C1315.87 54.3 1316.23 54.216 1316.55 54.048C1316.87 53.88 1317.15 53.6607 1317.37 53.39C1317.61 53.11 1317.78 52.7973 1317.9 52.452C1318.03 52.0973 1318.09 51.7333 1318.09 51.36C1318.09 50.968 1318.02 50.5947 1317.88 50.24C1317.74 49.8853 1317.54 49.5727 1317.3 49.302C1317.06 49.0313 1316.77 48.8167 1316.43 48.658C1316.11 48.4993 1315.75 48.42 1315.37 48.42C1315.13 48.42 1314.87 48.4713 1314.6 48.574C1314.34 48.6673 1314.09 48.798 1313.86 48.966C1313.63 49.1247 1313.44 49.316 1313.27 49.54C1313.11 49.7547 1313.01 49.9833 1312.98 50.226V52.466C1313.09 52.7273 1313.23 52.97 1313.4 53.194C1313.57 53.418 1313.77 53.614 1313.98 53.782C1314.21 53.9407 1314.45 54.0667 1314.7 54.16C1314.95 54.2533 1315.21 54.3 1315.48 54.3Z" fill="white"/>
<path d="M1462.24 49.47H1463.75L1467 45.06H1468.12L1464.63 49.848L1468.48 55H1467.36L1463.84 50.338H1462.24V55H1461.27V45.06H1462.24V49.47ZM1473.03 55.14C1472.5 55.14 1472.02 55.042 1471.58 54.846C1471.14 54.6407 1470.76 54.3653 1470.43 54.02C1470.11 53.6747 1469.87 53.2733 1469.69 52.816C1469.51 52.3587 1469.42 51.878 1469.42 51.374C1469.42 50.8607 1469.51 50.3753 1469.69 49.918C1469.87 49.4607 1470.13 49.0593 1470.44 48.714C1470.77 48.3687 1471.15 48.0933 1471.59 47.888C1472.03 47.6827 1472.51 47.58 1473.03 47.58C1473.56 47.58 1474.04 47.6827 1474.48 47.888C1474.92 48.0933 1475.31 48.3687 1475.62 48.714C1475.95 49.0593 1476.2 49.4607 1476.38 49.918C1476.57 50.3753 1476.66 50.8607 1476.66 51.374C1476.66 51.878 1476.57 52.3587 1476.39 52.816C1476.22 53.2733 1475.96 53.6747 1475.64 54.02C1475.32 54.3653 1474.94 54.6407 1474.49 54.846C1474.05 55.042 1473.57 55.14 1473.03 55.14ZM1470.39 51.388C1470.39 51.7987 1470.46 52.1813 1470.6 52.536C1470.74 52.8813 1470.92 53.1893 1471.16 53.46C1471.4 53.7213 1471.68 53.9267 1472 54.076C1472.32 54.2253 1472.67 54.3 1473.03 54.3C1473.4 54.3 1473.74 54.2253 1474.06 54.076C1474.38 53.9173 1474.67 53.7073 1474.91 53.446C1475.15 53.1753 1475.34 52.8627 1475.48 52.508C1475.62 52.1533 1475.69 51.7707 1475.69 51.36C1475.69 50.9587 1475.62 50.5807 1475.48 50.226C1475.34 49.862 1475.15 49.5493 1474.91 49.288C1474.67 49.0173 1474.38 48.8073 1474.06 48.658C1473.74 48.4993 1473.4 48.42 1473.03 48.42C1472.67 48.42 1472.33 48.4993 1472.01 48.658C1471.69 48.8073 1471.41 49.0173 1471.17 49.288C1470.93 49.5587 1470.74 49.876 1470.6 50.24C1470.46 50.5947 1470.39 50.9773 1470.39 51.388ZM1479.9 50.856H1483.99V47.706H1484.93V55H1483.99V51.654H1479.9V55H1478.97V47.706H1479.9V50.856ZM1490.48 55H1489.55V48.532H1486.99V47.706H1493.04V48.532H1490.48V55ZM1496.77 55.14C1496.43 55.14 1496.11 55.084 1495.81 54.972C1495.52 54.8507 1495.26 54.6873 1495.04 54.482C1494.82 54.2767 1494.66 54.0387 1494.53 53.768C1494.41 53.488 1494.35 53.1893 1494.35 52.872C1494.35 52.5547 1494.43 52.2607 1494.58 51.99C1494.73 51.7193 1494.94 51.486 1495.21 51.29C1495.48 51.094 1495.8 50.9447 1496.17 50.842C1496.55 50.73 1496.96 50.674 1497.4 50.674C1497.78 50.674 1498.16 50.7067 1498.54 50.772C1498.92 50.8373 1499.26 50.9307 1499.56 51.052V50.394C1499.56 49.75 1499.38 49.2413 1499.01 48.868C1498.65 48.4853 1498.15 48.294 1497.5 48.294C1497.13 48.294 1496.75 48.3687 1496.35 48.518C1495.96 48.6673 1495.57 48.882 1495.16 49.162L1494.83 48.532C1495.77 47.8973 1496.69 47.58 1497.57 47.58C1498.49 47.58 1499.21 47.8367 1499.73 48.35C1500.25 48.8633 1500.51 49.5727 1500.51 50.478V53.768C1500.51 54.0293 1500.63 54.16 1500.86 54.16V55C1500.7 55.028 1500.58 55.042 1500.5 55.042C1500.26 55.042 1500.06 54.9813 1499.92 54.86C1499.79 54.7387 1499.72 54.5707 1499.71 54.356L1499.69 53.782C1499.35 54.2207 1498.93 54.5567 1498.41 54.79C1497.91 55.0233 1497.36 55.14 1496.77 55.14ZM1497 54.412C1497.49 54.412 1497.95 54.3187 1498.36 54.132C1498.78 53.9453 1499.09 53.698 1499.31 53.39C1499.39 53.306 1499.45 53.2173 1499.49 53.124C1499.54 53.0213 1499.56 52.928 1499.56 52.844V51.654C1499.24 51.5327 1498.91 51.4393 1498.57 51.374C1498.23 51.3087 1497.88 51.276 1497.53 51.276C1496.86 51.276 1496.31 51.416 1495.89 51.696C1495.47 51.976 1495.26 52.3447 1495.26 52.802C1495.26 53.026 1495.3 53.236 1495.39 53.432C1495.48 53.628 1495.6 53.8007 1495.75 53.95C1495.91 54.09 1496.1 54.202 1496.31 54.286C1496.53 54.37 1496.76 54.412 1497 54.412ZM1507.61 47.706H1508.67L1505.91 51.234L1508.91 55H1507.85L1505.27 51.668H1504.23V55H1503.3V47.706H1504.23V50.926H1505.19L1507.61 47.706ZM1513.49 55H1512.57V48.532H1510.01V47.706H1516.06V48.532H1513.49V55ZM1518.11 47.706H1519.05V50.296H1520.63C1520.96 50.296 1521.28 50.3473 1521.58 50.45C1521.88 50.5527 1522.14 50.702 1522.36 50.898C1522.59 51.094 1522.77 51.3413 1522.9 51.64C1523.03 51.9293 1523.09 52.2653 1523.09 52.648C1523.09 53.0307 1523.03 53.3713 1522.9 53.67C1522.77 53.9593 1522.59 54.202 1522.36 54.398C1522.14 54.594 1521.88 54.7433 1521.58 54.846C1521.28 54.9487 1520.96 55 1520.63 55H1518.11V47.706ZM1524 47.706H1524.93V55H1524V47.706ZM1520.63 54.188C1521.11 54.188 1521.49 54.0527 1521.75 53.782C1522.02 53.502 1522.15 53.124 1522.15 52.648C1522.15 52.172 1522.02 51.7987 1521.75 51.528C1521.48 51.248 1521.1 51.108 1520.63 51.108H1519.05V54.188H1520.63Z" fill="white"/>
<path d="M1362.24 53.53L1368.4 45.06H1369.21V55H1368.23V46.67L1362.17 55H1361.27V45.06H1362.24V53.53ZM1377.98 55H1377.05V48.532H1373.17V55H1372.24V47.706H1377.98V55ZM1383.92 55.14C1383.39 55.14 1382.9 55.042 1382.46 54.846C1382.02 54.6407 1381.64 54.3653 1381.32 54.02C1381 53.6747 1380.75 53.2733 1380.57 52.816C1380.4 52.3587 1380.31 51.878 1380.31 51.374C1380.31 50.8607 1380.4 50.3753 1380.57 49.918C1380.76 49.4607 1381.01 49.0593 1381.33 48.714C1381.66 48.3687 1382.04 48.0933 1382.48 47.888C1382.92 47.6827 1383.4 47.58 1383.92 47.58C1384.44 47.58 1384.92 47.6827 1385.36 47.888C1385.81 48.0933 1386.19 48.3687 1386.51 48.714C1386.84 49.0593 1387.09 49.4607 1387.27 49.918C1387.45 50.3753 1387.55 50.8607 1387.55 51.374C1387.55 51.878 1387.46 52.3587 1387.28 52.816C1387.1 53.2733 1386.85 53.6747 1386.52 54.02C1386.21 54.3653 1385.82 54.6407 1385.38 54.846C1384.94 55.042 1384.45 55.14 1383.92 55.14ZM1381.27 51.388C1381.27 51.7987 1381.34 52.1813 1381.48 52.536C1381.62 52.8813 1381.81 53.1893 1382.04 53.46C1382.29 53.7213 1382.57 53.9267 1382.88 54.076C1383.21 54.2253 1383.56 54.3 1383.92 54.3C1384.28 54.3 1384.62 54.2253 1384.94 54.076C1385.27 53.9173 1385.55 53.7073 1385.8 53.446C1386.04 53.1753 1386.23 52.8627 1386.37 52.508C1386.51 52.1533 1386.58 51.7707 1386.58 51.36C1386.58 50.9587 1386.51 50.5807 1386.37 50.226C1386.23 49.862 1386.04 49.5493 1385.8 49.288C1385.55 49.0173 1385.27 48.8073 1384.94 48.658C1384.62 48.4993 1384.28 48.42 1383.92 48.42C1383.56 48.42 1383.21 48.4993 1382.9 48.658C1382.58 48.8073 1382.3 49.0173 1382.06 49.288C1381.81 49.5587 1381.62 49.876 1381.48 50.24C1381.34 50.5947 1381.27 50.9773 1381.27 51.388ZM1392.21 55H1391.29V48.532H1388.73V47.706H1394.77V48.532H1392.21V55ZM1399.61 55.14C1399.08 55.14 1398.59 55.042 1398.14 54.846C1397.7 54.6407 1397.32 54.3653 1396.99 54.02C1396.66 53.6653 1396.41 53.2593 1396.22 52.802C1396.04 52.3447 1395.95 51.8547 1395.95 51.332C1395.95 50.8187 1396.04 50.338 1396.22 49.89C1396.41 49.4327 1396.66 49.036 1396.98 48.7C1397.3 48.3547 1397.69 48.084 1398.14 47.888C1398.59 47.6827 1399.07 47.58 1399.59 47.58C1400.13 47.58 1400.61 47.6827 1401.05 47.888C1401.5 48.084 1401.88 48.3547 1402.2 48.7C1402.51 49.0453 1402.76 49.442 1402.94 49.89C1403.12 50.338 1403.21 50.814 1403.21 51.318C1403.21 51.3927 1403.21 51.4673 1403.21 51.542C1403.21 51.6167 1403.2 51.668 1403.19 51.696H1396.95C1396.98 52.088 1397.06 52.452 1397.21 52.788C1397.37 53.1147 1397.57 53.3993 1397.82 53.642C1398.06 53.8847 1398.33 54.076 1398.64 54.216C1398.96 54.3467 1399.29 54.412 1399.65 54.412C1399.88 54.412 1400.12 54.3793 1400.35 54.314C1400.58 54.2487 1400.8 54.16 1400.99 54.048C1401.19 53.936 1401.37 53.8007 1401.53 53.642C1401.68 53.474 1401.81 53.292 1401.89 53.096L1402.72 53.32C1402.6 53.5907 1402.44 53.838 1402.24 54.062C1402.03 54.2767 1401.8 54.468 1401.53 54.636C1401.25 54.7947 1400.96 54.916 1400.63 55C1400.3 55.0933 1399.96 55.14 1399.61 55.14ZM1402.3 50.968C1402.27 50.576 1402.17 50.2213 1402.02 49.904C1401.87 49.5773 1401.67 49.2973 1401.43 49.064C1401.19 48.8307 1400.92 48.6487 1400.6 48.518C1400.29 48.3873 1399.96 48.322 1399.61 48.322C1399.25 48.322 1398.92 48.3873 1398.6 48.518C1398.28 48.6487 1398 48.8307 1397.76 49.064C1397.53 49.2973 1397.33 49.5773 1397.19 49.904C1397.05 50.2307 1396.96 50.5853 1396.93 50.968H1402.3ZM1409.7 47.706H1410.76L1408.01 51.234L1411 55H1409.94L1407.36 51.668H1406.33V55H1405.39V47.706H1406.33V50.926H1407.28L1409.7 47.706ZM1414.62 55.14C1414.28 55.14 1413.95 55.084 1413.66 54.972C1413.37 54.8507 1413.11 54.6873 1412.89 54.482C1412.67 54.2767 1412.5 54.0387 1412.38 53.768C1412.26 53.488 1412.2 53.1893 1412.2 52.872C1412.2 52.5547 1412.27 52.2607 1412.42 51.99C1412.57 51.7193 1412.78 51.486 1413.05 51.29C1413.32 51.094 1413.65 50.9447 1414.02 50.842C1414.39 50.73 1414.8 50.674 1415.25 50.674C1415.62 50.674 1416 50.7067 1416.39 50.772C1416.77 50.8373 1417.11 50.9307 1417.41 51.052V50.394C1417.41 49.75 1417.23 49.2413 1416.86 48.868C1416.5 48.4853 1415.99 48.294 1415.35 48.294C1414.98 48.294 1414.59 48.3687 1414.2 48.518C1413.81 48.6673 1413.41 48.882 1413.01 49.162L1412.68 48.532C1413.62 47.8973 1414.53 47.58 1415.42 47.58C1416.33 47.58 1417.05 47.8367 1417.58 48.35C1418.1 48.8633 1418.36 49.5727 1418.36 50.478V53.768C1418.36 54.0293 1418.48 54.16 1418.71 54.16V55C1418.55 55.028 1418.43 55.042 1418.35 55.042C1418.1 55.042 1417.91 54.9813 1417.77 54.86C1417.64 54.7387 1417.57 54.5707 1417.56 54.356L1417.53 53.782C1417.2 54.2207 1416.77 54.5567 1416.26 54.79C1415.76 55.0233 1415.21 55.14 1414.62 55.14ZM1414.85 54.412C1415.34 54.412 1415.79 54.3187 1416.2 54.132C1416.62 53.9453 1416.94 53.698 1417.16 53.39C1417.24 53.306 1417.3 53.2173 1417.34 53.124C1417.38 53.0213 1417.41 52.928 1417.41 52.844V51.654C1417.09 51.5327 1416.76 51.4393 1416.41 51.374C1416.08 51.3087 1415.73 51.276 1415.38 51.276C1414.71 51.276 1414.16 51.416 1413.74 51.696C1413.32 51.976 1413.11 52.3447 1413.11 52.802C1413.11 53.026 1413.15 53.236 1413.24 53.432C1413.33 53.628 1413.45 53.8007 1413.6 53.95C1413.76 54.09 1413.94 54.202 1414.16 54.286C1414.37 54.37 1414.6 54.412 1414.85 54.412Z" fill="white"/>
<path d="M417.406 54V29.3906H420.465V40.1133H423.629V43.1016H420.465V54H417.406ZM425.387 43.1016V40.1133H428.516V29.3906H431.609V54H428.516V43.1016H425.387ZM434.352 48.7969V40.1133C434.352 39.0117 434.844 37.9336 435.828 36.8789C437.047 35.6133 438.57 34.9805 440.398 34.9805V37.8281C439.016 37.8281 438.055 38.4023 437.516 39.5508C437.352 39.9023 437.27 40.2539 437.27 40.6055V48.3398C437.27 49.207 437.668 49.9453 438.465 50.5547C439.027 50.9766 439.672 51.1875 440.398 51.1875V54.0352C438.172 54.0352 436.449 53.1328 435.23 51.3281C434.645 50.4375 434.352 49.5938 434.352 48.7969ZM441.91 54.0352V51.1875C443.152 51.1875 444.043 50.625 444.582 49.5C444.77 49.125 444.863 48.7617 444.863 48.4102V40.6055C444.863 39.6445 444.453 38.8828 443.633 38.3203C443.117 37.9922 442.531 37.8281 441.875 37.8281V34.9805C444.031 34.9805 445.695 35.8594 446.867 37.6172C447.453 38.4844 447.746 39.3164 447.746 40.1133V48.7969C447.746 49.9453 447.254 51.0586 446.27 52.1367C445.121 53.3789 443.668 54.0117 441.91 54.0352ZM450.418 48.9375V35.0156H453.406V48.5859C453.406 49.4297 453.828 50.1328 454.672 50.6953C455.234 51.0469 455.855 51.2227 456.535 51.2227V54.1758C454.285 54.1758 452.551 53.2969 451.332 51.5391C450.723 50.6484 450.418 49.7812 450.418 48.9375ZM458.082 54.1758V51.2227C459.348 51.2227 460.273 50.7188 460.859 49.7109C461.07 49.3359 461.176 48.9609 461.176 48.5859V35.0156H464.164V48.9375C464.164 50.0391 463.66 51.1289 462.652 52.207C461.434 53.4961 459.91 54.1523 458.082 54.1758ZM466.203 49.0078L468.98 48.4805C468.98 49.5352 469.531 50.3672 470.633 50.9766C471.172 51.2344 471.688 51.375 472.18 51.3984V54.1758C469.906 54.1758 468.207 53.3555 467.082 51.7148C466.496 50.8477 466.203 49.9453 466.203 49.0078ZM466.379 40.3594C466.379 38.2266 467.352 36.6445 469.297 35.6133C470.234 35.1211 471.172 34.875 472.109 34.875V37.6172C471.031 37.6172 470.199 38.0625 469.613 38.9531C469.309 39.3984 469.156 39.8672 469.156 40.3594C469.156 41.1094 469.742 41.7188 470.914 42.1875C471.805 42.5625 473.527 43.0547 476.082 43.6641C477.676 43.9922 478.812 44.7773 479.492 46.0195C479.844 46.6758 480.02 47.4141 480.02 48.2344C480.02 50.4844 479.117 52.1484 477.312 53.2266C476.258 53.8594 475.051 54.1758 473.691 54.1758V51.3984C474.77 51.3984 475.672 51.0234 476.398 50.2734C476.914 49.7344 477.172 49.1016 477.172 48.375C477.172 47.4375 476.246 46.6875 474.395 46.125C473.926 45.9844 473.176 45.7852 472.145 45.5273C471.043 45.2695 470.246 45.0586 469.754 44.8945C467.973 44.1914 466.895 43.125 466.52 41.6953C466.426 41.2734 466.379 40.8281 466.379 40.3594ZM473.656 37.6523V34.875C475.672 34.875 477.301 35.625 478.543 37.125C479.316 38.0859 479.703 39.0938 479.703 40.1484L476.926 40.6055C476.926 39.3164 476.223 38.4141 474.816 37.8984C474.395 37.7344 474.008 37.6523 473.656 37.6523ZM482.094 48.7969V40.0781C482.117 39 482.633 37.9336 483.641 36.8789C484.859 35.6367 486.336 35.0039 488.07 34.9805V37.7578C486.945 37.7578 486.066 38.25 485.434 39.2344C485.176 39.6562 485.047 40.043 485.047 40.3945V42.7852H492.922V40.3945C492.922 39.3398 492.383 38.5664 491.305 38.0742C490.812 37.8398 490.309 37.7227 489.793 37.7227V34.9805C491.41 34.9805 492.852 35.5547 494.117 36.7031C495.172 37.7109 495.711 38.8242 495.734 40.043V45.6328H485.047V48.7969C485.047 49.4531 485.422 50.0625 486.172 50.625C486.781 51.0469 487.426 51.2578 488.105 51.2578V54C485.973 54 484.297 53.1328 483.078 51.3984C482.422 50.4844 482.094 49.6172 482.094 48.7969ZM489.793 54V51.2227C491.199 51.2227 492.254 50.6133 492.957 49.3945C493.098 49.1367 493.203 48.8906 493.273 48.6562L495.77 49.5703C495.348 51.1875 494.387 52.4062 492.887 53.2266C491.926 53.7422 490.895 54 489.793 54ZM497.492 29.3906H500.586L506.844 50.7656L505.719 54H504.629L497.492 29.3906ZM506.07 42.4336L510.43 29.3906H513.523C513.312 30.0703 512.434 32.7891 510.887 37.5469C509.082 43.0781 508.051 46.2539 507.793 47.0742H507.441L506.07 42.4336ZM515.211 47.1445V35.5781C515.211 34.3359 515.738 33.0703 516.793 31.7812C518.199 30.0938 519.98 29.2383 522.137 29.2148V32.2734C520.707 32.2734 519.594 33 518.797 34.4531C518.469 35.0859 518.305 35.6484 518.305 36.1406V47.1445C518.305 48.6211 519.031 49.7695 520.484 50.5898C521.094 50.9414 521.633 51.1172 522.102 51.1172V54.1758C520.766 54.1758 519.43 53.6953 518.094 52.7344C516.195 51.3281 515.234 49.4648 515.211 47.1445ZM524.035 54.1758V51.1172C524.855 51.1172 525.688 50.7539 526.531 50.0273C527.422 49.2305 527.879 48.2695 527.902 47.1445V36.1406C527.902 35.2266 527.527 34.3477 526.777 33.5039C526.004 32.707 525.09 32.2969 524.035 32.2734V29.2148C526.402 29.2148 528.301 30.2344 529.73 32.2734C530.551 33.4453 530.961 34.5469 530.961 35.5781V47.1445C530.961 49.7461 529.801 51.7383 527.48 53.1211C526.262 53.8242 525.113 54.1758 524.035 54.1758ZM533.809 54H536.867V29.3906H533.809V54ZM538.625 42.9961H542.422C545.492 42.9727 547.414 41.8008 548.188 39.4805C548.492 38.543 548.645 37.4297 548.645 36.1406C548.645 31.8516 546.711 29.6016 542.844 29.3906C542.703 29.3906 542.562 29.3906 542.422 29.3906H538.625V32.3438H541.93C544.297 32.3906 545.492 33.6562 545.516 36.1406C545.469 38.6953 544.285 39.9844 541.965 40.0078H538.625V42.9961Z" fill="white"/>
<path d="M418.892 75.584L416.348 71.48H417.308L419.612 75.26H421.208V71.48H422.132V75.26H423.728L426.02 71.48H426.992L424.436 75.584L427.304 80H426.332L423.848 76.004H422.132V80H421.208V76.004H419.492L417.008 80H416.036L418.892 75.584ZM430.704 78.74L435.984 71.48H436.68V80H435.84V72.86L430.644 80H429.876V71.48H430.704V78.74ZM442.212 73.736C442.116 74.864 441.992 75.828 441.84 76.628C441.696 77.428 441.512 78.084 441.288 78.596C441.072 79.1 440.808 79.472 440.496 79.712C440.192 79.944 439.832 80.06 439.416 80.06L439.272 79.256C439.432 79.248 439.584 79.216 439.728 79.16C439.88 79.104 440.024 79.004 440.16 78.86C440.296 78.708 440.424 78.504 440.544 78.248C440.664 77.984 440.776 77.648 440.88 77.24C440.984 76.824 441.076 76.324 441.156 75.74C441.244 75.156 441.32 74.464 441.384 73.664L441.564 71.48H445.896V80H445.068V72.224H442.332L442.212 73.736ZM452.957 80.06C452.365 80.06 451.821 79.94 451.325 79.7C450.837 79.452 450.417 79.128 450.065 78.728C449.713 78.32 449.441 77.856 449.249 77.336C449.057 76.816 448.961 76.284 448.961 75.74C448.961 75.172 449.061 74.628 449.261 74.108C449.469 73.588 449.753 73.128 450.113 72.728C450.473 72.328 450.897 72.012 451.385 71.78C451.873 71.54 452.401 71.42 452.969 71.42C453.561 71.42 454.101 71.548 454.589 71.804C455.085 72.052 455.505 72.38 455.849 72.788C456.201 73.196 456.473 73.66 456.665 74.18C456.857 74.692 456.953 75.216 456.953 75.752C456.953 76.32 456.849 76.864 456.641 77.384C456.441 77.904 456.161 78.364 455.801 78.764C455.449 79.156 455.029 79.472 454.541 79.712C454.053 79.944 453.525 80.06 452.957 80.06ZM449.801 75.74C449.801 76.204 449.877 76.652 450.029 77.084C450.181 77.508 450.397 77.888 450.677 78.224C450.957 78.552 451.289 78.816 451.673 79.016C452.057 79.208 452.485 79.304 452.957 79.304C453.437 79.304 453.873 79.2 454.265 78.992C454.657 78.784 454.989 78.512 455.261 78.176C455.533 77.84 455.741 77.46 455.885 77.036C456.037 76.612 456.113 76.18 456.113 75.74C456.113 75.276 456.033 74.832 455.873 74.408C455.721 73.976 455.505 73.596 455.225 73.268C454.945 72.94 454.613 72.68 454.229 72.488C453.845 72.288 453.421 72.188 452.957 72.188C452.477 72.188 452.041 72.292 451.649 72.5C451.257 72.7 450.925 72.968 450.653 73.304C450.381 73.64 450.169 74.02 450.017 74.444C449.873 74.868 449.801 75.3 449.801 75.74ZM465.257 69.008C465.241 69.392 465.077 69.7 464.765 69.932C464.461 70.156 464.037 70.268 463.493 70.268C462.949 70.268 462.521 70.156 462.209 69.932C461.905 69.7 461.745 69.392 461.729 69.008H462.245C462.245 69.112 462.277 69.212 462.341 69.308C462.405 69.404 462.493 69.488 462.605 69.56C462.717 69.632 462.849 69.692 463.001 69.74C463.153 69.78 463.321 69.8 463.505 69.8C463.849 69.8 464.133 69.728 464.357 69.584C464.589 69.432 464.721 69.24 464.753 69.008H465.257ZM460.817 78.74L466.097 71.48H466.793V80H465.953V72.86L460.757 80H459.989V71.48H460.817V78.74ZM475.732 75.26H477.028L479.812 71.48H480.772L477.784 75.584L481.084 80H480.124L477.1 76.004H475.732V80H474.904V71.48H475.732V75.26ZM486.655 80.06C486.063 80.06 485.519 79.94 485.023 79.7C484.535 79.452 484.115 79.128 483.763 78.728C483.411 78.32 483.139 77.856 482.947 77.336C482.755 76.816 482.659 76.284 482.659 75.74C482.659 75.172 482.759 74.628 482.959 74.108C483.167 73.588 483.451 73.128 483.811 72.728C484.171 72.328 484.595 72.012 485.083 71.78C485.571 71.54 486.099 71.42 486.667 71.42C487.259 71.42 487.799 71.548 488.287 71.804C488.783 72.052 489.203 72.38 489.547 72.788C489.899 73.196 490.171 73.66 490.363 74.18C490.555 74.692 490.651 75.216 490.651 75.752C490.651 76.32 490.547 76.864 490.339 77.384C490.139 77.904 489.859 78.364 489.499 78.764C489.147 79.156 488.727 79.472 488.239 79.712C487.751 79.944 487.223 80.06 486.655 80.06ZM483.499 75.74C483.499 76.204 483.575 76.652 483.727 77.084C483.879 77.508 484.095 77.888 484.375 78.224C484.655 78.552 484.987 78.816 485.371 79.016C485.755 79.208 486.183 79.304 486.655 79.304C487.135 79.304 487.571 79.2 487.963 78.992C488.355 78.784 488.687 78.512 488.959 78.176C489.231 77.84 489.439 77.46 489.583 77.036C489.735 76.612 489.811 76.18 489.811 75.74C489.811 75.276 489.731 74.832 489.571 74.408C489.419 73.976 489.203 73.596 488.923 73.268C488.643 72.94 488.311 72.68 487.927 72.488C487.543 72.288 487.119 72.188 486.655 72.188C486.175 72.188 485.739 72.292 485.347 72.5C484.955 72.7 484.623 72.968 484.351 73.304C484.079 73.64 483.867 74.02 483.715 74.444C483.571 74.868 483.499 75.3 483.499 75.74ZM501.222 80V73.004L498.114 78.416H497.622L494.514 73.004V80H493.674V71.48H494.538L497.862 77.312L501.21 71.48H502.062V80H501.222ZM505.685 71.48H512.261V80H511.421V72.224H506.513V80H505.685V71.48ZM517.787 73.736C517.691 74.864 517.567 75.828 517.415 76.628C517.271 77.428 517.087 78.084 516.863 78.596C516.647 79.1 516.383 79.472 516.071 79.712C515.767 79.944 515.407 80.06 514.991 80.06L514.847 79.256C515.007 79.248 515.159 79.216 515.303 79.16C515.455 79.104 515.599 79.004 515.735 78.86C515.871 78.708 515.999 78.504 516.119 78.248C516.239 77.984 516.351 77.648 516.455 77.24C516.559 76.824 516.651 76.324 516.731 75.74C516.819 75.156 516.895 74.464 516.959 73.664L517.139 71.48H521.471V80H520.643V72.224H517.907L517.787 73.736ZM530.824 79.256V80H525.1V71.48H530.716V72.224H525.94V75.296H530.104V76.004H525.94V79.256H530.824ZM534.692 75.26H535.988L538.772 71.48H539.732L536.744 75.584L540.044 80H539.084L536.06 76.004H534.692V80H533.864V71.48H534.692V75.26ZM541.607 75.68C541.607 75.168 541.695 74.66 541.871 74.156C542.055 73.644 542.319 73.188 542.663 72.788C543.007 72.388 543.431 72.064 543.935 71.816C544.439 71.56 545.011 71.432 545.651 71.432C546.411 71.432 547.059 71.604 547.595 71.948C548.139 72.292 548.539 72.74 548.795 73.292L548.135 73.7C547.999 73.42 547.831 73.184 547.631 72.992C547.439 72.8 547.231 72.644 547.007 72.524C546.783 72.404 546.551 72.32 546.311 72.272C546.071 72.216 545.835 72.188 545.603 72.188C545.091 72.188 544.639 72.292 544.247 72.5C543.855 72.708 543.523 72.98 543.251 73.316C542.987 73.652 542.787 74.032 542.651 74.456C542.515 74.872 542.447 75.296 542.447 75.728C542.447 76.2 542.527 76.652 542.687 77.084C542.855 77.516 543.079 77.9 543.359 78.236C543.647 78.564 543.983 78.828 544.367 79.028C544.759 79.22 545.183 79.316 545.639 79.316C545.879 79.316 546.123 79.288 546.371 79.232C546.627 79.168 546.871 79.072 547.103 78.944C547.343 78.808 547.563 78.644 547.763 78.452C547.963 78.252 548.131 78.012 548.267 77.732L548.963 78.092C548.827 78.412 548.635 78.696 548.387 78.944C548.139 79.184 547.863 79.388 547.559 79.556C547.255 79.724 546.931 79.852 546.587 79.94C546.251 80.028 545.919 80.072 545.591 80.072C545.007 80.072 544.471 79.944 543.983 79.688C543.495 79.432 543.075 79.1 542.723 78.692C542.371 78.276 542.095 77.808 541.895 77.288C541.703 76.76 541.607 76.224 541.607 75.68Z" fill="white"/>
</svg>
